solid CATIA STL
  facet normal  9.807853e-001 -1.950903e-001  0.000000e+000
    outer loop
      vertex  1.000000e+001 -2.449294e-015  2.000000e+000
      vertex  1.000000e+001 -2.449294e-015  6.800000e+001
      vertex  9.238795e+000 -3.826834e+000  2.000000e+000
    endloop
  endfacet
  facet normal  9.807853e-001 -1.950903e-001  0.000000e+000
    outer loop
      vertex  9.238795e+000 -3.826834e+000  2.000000e+000
      vertex  1.000000e+001 -2.449294e-015  6.800000e+001
      vertex  9.238795e+000 -3.826834e+000  6.800000e+001
    endloop
  endfacet
  facet normal  8.314697e-001 -5.555702e-001  0.000000e+000
    outer loop
      vertex  9.238795e+000 -3.826834e+000  2.000000e+000
      vertex  9.238795e+000 -3.826834e+000  6.800000e+001
      vertex  7.071068e+000 -7.071068e+000  2.000000e+000
    endloop
  endfacet
  facet normal  8.314697e-001 -5.555702e-001  0.000000e+000
    outer loop
      vertex  7.071068e+000 -7.071068e+000  2.000000e+000
      vertex  9.238795e+000 -3.826834e+000  6.800000e+001
      vertex  7.071068e+000 -7.071068e+000  6.800000e+001
    endloop
  endfacet
  facet normal  5.555702e-001 -8.314697e-001  0.000000e+000
    outer loop
      vertex  7.071068e+000 -7.071068e+000  2.000000e+000
      vertex  7.071068e+000 -7.071068e+000  6.800000e+001
      vertex  3.826834e+000 -9.238795e+000  2.000000e+000
    endloop
  endfacet
  facet normal  5.555702e-001 -8.314697e-001  0.000000e+000
    outer loop
      vertex  3.826834e+000 -9.238795e+000  2.000000e+000
      vertex  7.071068e+000 -7.071068e+000  6.800000e+001
      vertex  3.826834e+000 -9.238795e+000  6.800000e+001
    endloop
  endfacet
  facet normal  1.950903e-001 -9.807853e-001  0.000000e+000
    outer loop
      vertex  3.826834e+000 -9.238795e+000  2.000000e+000
      vertex  3.826834e+000 -9.238795e+000  6.800000e+001
      vertex -1.836970e-015 -1.000000e+001  2.000000e+000
    endloop
  endfacet
  facet normal  1.950903e-001 -9.807853e-001  0.000000e+000
    outer loop
      vertex -1.836970e-015 -1.000000e+001  2.000000e+000
      vertex  3.826834e+000 -9.238795e+000  6.800000e+001
      vertex -1.836970e-015 -1.000000e+001  6.800000e+001
    endloop
  endfacet
  facet normal -1.950903e-001 -9.807853e-001  -0.000000e+000
    outer loop
      vertex -1.836970e-015 -1.000000e+001  2.000000e+000
      vertex -1.836970e-015 -1.000000e+001  6.800000e+001
      vertex -3.826834e+000 -9.238795e+000  2.000000e+000
    endloop
  endfacet
  facet normal -1.950903e-001 -9.807853e-001  0.000000e+000
    outer loop
      vertex -3.826834e+000 -9.238795e+000  2.000000e+000
      vertex -1.836970e-015 -1.000000e+001  6.800000e+001
      vertex -3.826834e+000 -9.238795e+000  6.800000e+001
    endloop
  endfacet
  facet normal -5.555702e-001 -8.314697e-001  -0.000000e+000
    outer loop
      vertex -3.826834e+000 -9.238795e+000  2.000000e+000
      vertex -3.826834e+000 -9.238795e+000  6.800000e+001
      vertex -7.071068e+000 -7.071068e+000  2.000000e+000
    endloop
  endfacet
  facet normal -5.555702e-001 -8.314697e-001  0.000000e+000
    outer loop
      vertex -7.071068e+000 -7.071068e+000  2.000000e+000
      vertex -3.826834e+000 -9.238795e+000  6.800000e+001
      vertex -7.071068e+000 -7.071068e+000  6.800000e+001
    endloop
  endfacet
  facet normal -8.314697e-001 -5.555702e-001  -0.000000e+000
    outer loop
      vertex -7.071068e+000 -7.071068e+000  2.000000e+000
      vertex -7.071068e+000 -7.071068e+000  6.800000e+001
      vertex -9.238795e+000 -3.826834e+000  2.000000e+000
    endloop
  endfacet
  facet normal -8.314697e-001 -5.555702e-001  0.000000e+000
    outer loop
      vertex -9.238795e+000 -3.826834e+000  2.000000e+000
      vertex -7.071068e+000 -7.071068e+000  6.800000e+001
      vertex -9.238795e+000 -3.826834e+000  6.800000e+001
    endloop
  endfacet
  facet normal -9.807853e-001 -1.950903e-001  -0.000000e+000
    outer loop
      vertex -9.238795e+000 -3.826834e+000  2.000000e+000
      vertex -9.238795e+000 -3.826834e+000  6.800000e+001
      vertex -1.000000e+001  1.224647e-015  2.000000e+000
    endloop
  endfacet
  facet normal -9.807853e-001 -1.950903e-001  0.000000e+000
    outer loop
      vertex -1.000000e+001  1.224647e-015  2.000000e+000
      vertex -9.238795e+000 -3.826834e+000  6.800000e+001
      vertex -1.000000e+001  1.224647e-015  6.800000e+001
    endloop
  endfacet
  facet normal -9.807853e-001  1.950903e-001  0.000000e+000
    outer loop
      vertex -1.000000e+001  1.224647e-015  2.000000e+000
      vertex -1.000000e+001  1.224647e-015  6.800000e+001
      vertex -9.238795e+000  3.826834e+000  2.000000e+000
    endloop
  endfacet
  facet normal -9.807853e-001  1.950903e-001  0.000000e+000
    outer loop
      vertex -9.238795e+000  3.826834e+000  2.000000e+000
      vertex -1.000000e+001  1.224647e-015  6.800000e+001
      vertex -9.238795e+000  3.826834e+000  6.800000e+001
    endloop
  endfacet
  facet normal -8.314697e-001  5.555702e-001  0.000000e+000
    outer loop
      vertex -9.238795e+000  3.826834e+000  2.000000e+000
      vertex -9.238795e+000  3.826834e+000  6.800000e+001
      vertex -7.071068e+000  7.071068e+000  2.000000e+000
    endloop
  endfacet
  facet normal -8.314697e-001  5.555702e-001  0.000000e+000
    outer loop
      vertex -7.071068e+000  7.071068e+000  2.000000e+000
      vertex -9.238795e+000  3.826834e+000  6.800000e+001
      vertex -7.071068e+000  7.071068e+000  6.800000e+001
    endloop
  endfacet
  facet normal -5.555702e-001  8.314697e-001  0.000000e+000
    outer loop
      vertex -7.071068e+000  7.071068e+000  2.000000e+000
      vertex -7.071068e+000  7.071068e+000  6.800000e+001
      vertex -3.826834e+000  9.238795e+000  2.000000e+000
    endloop
  endfacet
  facet normal -5.555702e-001  8.314697e-001  0.000000e+000
    outer loop
      vertex -3.826834e+000  9.238795e+000  2.000000e+000
      vertex -7.071068e+000  7.071068e+000  6.800000e+001
      vertex -3.826834e+000  9.238795e+000  6.800000e+001
    endloop
  endfacet
  facet normal -1.950903e-001  9.807853e-001  0.000000e+000
    outer loop
      vertex -3.826834e+000  9.238795e+000  2.000000e+000
      vertex -3.826834e+000  9.238795e+000  6.800000e+001
      vertex  6.123234e-016  1.000000e+001  2.000000e+000
    endloop
  endfacet
  facet normal -1.950903e-001  9.807853e-001  0.000000e+000
    outer loop
      vertex  6.123234e-016  1.000000e+001  2.000000e+000
      vertex -3.826834e+000  9.238795e+000  6.800000e+001
      vertex  6.123234e-016  1.000000e+001  6.800000e+001
    endloop
  endfacet
  facet normal  1.950903e-001  9.807853e-001  0.000000e+000
    outer loop
      vertex  6.123234e-016  1.000000e+001  2.000000e+000
      vertex  6.123234e-016  1.000000e+001  6.800000e+001
      vertex  3.826834e+000  9.238795e+000  2.000000e+000
    endloop
  endfacet
  facet normal  1.950903e-001  9.807853e-001  -0.000000e+000
    outer loop
      vertex  3.826834e+000  9.238795e+000  2.000000e+000
      vertex  6.123234e-016  1.000000e+001  6.800000e+001
      vertex  3.826834e+000  9.238795e+000  6.800000e+001
    endloop
  endfacet
  facet normal  5.555702e-001  8.314697e-001  0.000000e+000
    outer loop
      vertex  3.826834e+000  9.238795e+000  2.000000e+000
      vertex  3.826834e+000  9.238795e+000  6.800000e+001
      vertex  7.071068e+000  7.071068e+000  2.000000e+000
    endloop
  endfacet
  facet normal  5.555702e-001  8.314697e-001  -0.000000e+000
    outer loop
      vertex  7.071068e+000  7.071068e+000  2.000000e+000
      vertex  3.826834e+000  9.238795e+000  6.800000e+001
      vertex  7.071068e+000  7.071068e+000  6.800000e+001
    endloop
  endfacet
  facet normal  8.314697e-001  5.555702e-001  0.000000e+000
    outer loop
      vertex  7.071068e+000  7.071068e+000  2.000000e+000
      vertex  7.071068e+000  7.071068e+000  6.800000e+001
      vertex  9.238795e+000  3.826834e+000  2.000000e+000
    endloop
  endfacet
  facet normal  8.314697e-001  5.555702e-001  -0.000000e+000
    outer loop
      vertex  9.238795e+000  3.826834e+000  2.000000e+000
      vertex  7.071068e+000  7.071068e+000  6.800000e+001
      vertex  9.238795e+000  3.826834e+000  6.800000e+001
    endloop
  endfacet
  facet normal  9.807853e-001  1.950903e-001  0.000000e+000
    outer loop
      vertex  9.238795e+000  3.826834e+000  2.000000e+000
      vertex  9.238795e+000  3.826834e+000  6.800000e+001
      vertex  1.000000e+001 -2.449294e-015  2.000000e+000
    endloop
  endfacet
  facet normal  9.807853e-001  1.950903e-001  -0.000000e+000
    outer loop
      vertex  1.000000e+001 -2.449294e-015  2.000000e+000
      vertex  9.238795e+000  3.826834e+000  6.800000e+001
      vertex  1.000000e+001 -2.449294e-015  6.800000e+001
    endloop
  endfacet
  facet normal  0.000000e+000  0.000000e+000 -1.000000e+000
    outer loop
      vertex -4.980741e-009  8.000000e+000  0.000000e+000
      vertex  3.061467e+000  7.391036e+000  0.000000e+000
      vertex -3.061467e+000  7.391036e+000  0.000000e+000
    endloop
  endfacet
  facet normal  0.000000e+000  0.000000e+000 -1.000000e+000
    outer loop
      vertex -1.469576e-015 -8.000000e+000  0.000000e+000
      vertex -3.061467e+000 -7.391036e+000  0.000000e+000
      vertex  3.061467e+000 -7.391036e+000  0.000000e+000
    endloop
  endfacet
  facet normal  0.000000e+000  0.000000e+000 -1.000000e+000
    outer loop
      vertex  3.061467e+000 -7.391036e+000  0.000000e+000
      vertex -3.061467e+000 -7.391036e+000  0.000000e+000
      vertex -5.656854e+000 -5.656854e+000  0.000000e+000
    endloop
  endfacet
  facet normal  0.000000e+000  0.000000e+000 -1.000000e+000
    outer loop
      vertex  3.061467e+000 -7.391036e+000  0.000000e+000
      vertex -5.656854e+000 -5.656854e+000  0.000000e+000
      vertex  5.656854e+000 -5.656854e+000  0.000000e+000
    endloop
  endfacet
  facet normal  0.000000e+000  0.000000e+000 -1.000000e+000
    outer loop
      vertex  5.656854e+000 -5.656854e+000  0.000000e+000
      vertex -5.656854e+000 -5.656854e+000  0.000000e+000
      vertex -7.391036e+000 -3.061467e+000  0.000000e+000
    endloop
  endfacet
  facet normal  0.000000e+000  0.000000e+000 -1.000000e+000
    outer loop
      vertex  5.656854e+000 -5.656854e+000  0.000000e+000
      vertex -7.391036e+000 -3.061467e+000  0.000000e+000
      vertex  7.391036e+000 -3.061467e+000  0.000000e+000
    endloop
  endfacet
  facet normal  0.000000e+000  0.000000e+000 -9.999999e-001
    outer loop
      vertex  7.391036e+000 -3.061467e+000  0.000000e+000
      vertex -7.391036e+000 -3.061467e+000  0.000000e+000
      vertex -8.000000e+000 -9.961478e-009  0.000000e+000
    endloop
  endfacet
  facet normal  0.000000e+000  0.000000e+000 -1.000000e+000
    outer loop
      vertex  7.391036e+000 -3.061467e+000  0.000000e+000
      vertex -8.000000e+000 -9.961478e-009  0.000000e+000
      vertex  8.000000e+000 -1.204580e-015  0.000000e+000
    endloop
  endfacet
  facet normal  -0.000000e+000  0.000000e+000 -1.000000e+000
    outer loop
      vertex  8.000000e+000 -1.204580e-015  0.000000e+000
      vertex -8.000000e+000 -9.961478e-009  0.000000e+000
      vertex -7.391036e+000  3.061467e+000  0.000000e+000
    endloop
  endfacet
  facet normal  0.000000e+000  0.000000e+000 -9.999999e-001
    outer loop
      vertex  8.000000e+000 -1.204580e-015  0.000000e+000
      vertex -7.391036e+000  3.061467e+000  0.000000e+000
      vertex  7.391036e+000  3.061467e+000  0.000000e+000
    endloop
  endfacet
  facet normal  0.000000e+000  0.000000e+000 -1.000000e+000
    outer loop
      vertex  7.391036e+000  3.061467e+000  0.000000e+000
      vertex -7.391036e+000  3.061467e+000  0.000000e+000
      vertex -5.656854e+000  5.656854e+000  0.000000e+000
    endloop
  endfacet
  facet normal  0.000000e+000  0.000000e+000 -1.000000e+000
    outer loop
      vertex  7.391036e+000  3.061467e+000  0.000000e+000
      vertex -5.656854e+000  5.656854e+000  0.000000e+000
      vertex  5.656854e+000  5.656854e+000  0.000000e+000
    endloop
  endfacet
  facet normal  0.000000e+000  0.000000e+000 -1.000000e+000
    outer loop
      vertex  5.656854e+000  5.656854e+000  0.000000e+000
      vertex -5.656854e+000  5.656854e+000  0.000000e+000
      vertex -3.061467e+000  7.391036e+000  0.000000e+000
    endloop
  endfacet
  facet normal  0.000000e+000  0.000000e+000 -1.000000e+000
    outer loop
      vertex  5.656854e+000  5.656854e+000  0.000000e+000
      vertex -3.061467e+000  7.391036e+000  0.000000e+000
      vertex  3.061467e+000  7.391036e+000  0.000000e+000
    endloop
  endfacet
  facet normal  9.086633e-001 -1.807444e-001 -3.763809e-001
    outer loop
      vertex  1.000000e+001 -2.449294e-015  2.000000e+000
      vertex  9.238795e+000 -3.826834e+000  2.000000e+000
      vertex  9.414213e+000  1.776357e-015  5.857865e-001
    endloop
  endfacet
  facet normal  9.086635e-001 -1.807443e-001 -3.763806e-001
    outer loop
      vertex  9.414213e+000  1.776357e-015  5.857865e-001
      vertex  9.238795e+000 -3.826834e+000  2.000000e+000
      vertex  8.697599e+000 -3.602664e+000  5.857865e-001
    endloop
  endfacet
  facet normal  3.815796e-001 -7.590085e-002 -9.212145e-001
    outer loop
      vertex  9.414213e+000  1.776357e-015  5.857865e-001
      vertex  8.697599e+000 -3.602664e+000  5.857865e-001
      vertex  8.000000e+000 -1.204580e-015  0.000000e+000
    endloop
  endfacet
  facet normal  3.815794e-001 -7.590090e-002 -9.212145e-001
    outer loop
      vertex  8.000000e+000 -1.204580e-015  0.000000e+000
      vertex  8.697599e+000 -3.602664e+000  5.857865e-001
      vertex  7.391036e+000 -3.061467e+000  0.000000e+000
    endloop
  endfacet
  facet normal -9.086634e-001 -1.807444e-001 -3.763806e-001
    outer loop
      vertex -9.238795e+000 -3.826834e+000  2.000000e+000
      vertex -1.000000e+001  1.224647e-015  2.000000e+000
      vertex -8.697599e+000 -3.602664e+000  5.857865e-001
    endloop
  endfacet
  facet normal -9.086633e-001 -1.807442e-001 -3.763809e-001
    outer loop
      vertex -8.697599e+000 -3.602664e+000  5.857865e-001
      vertex -1.000000e+001  1.224647e-015  2.000000e+000
      vertex -9.414213e+000 -1.172244e-008  5.857865e-001
    endloop
  endfacet
  facet normal -3.815795e-001 -7.590082e-002 -9.212145e-001
    outer loop
      vertex -8.697599e+000 -3.602664e+000  5.857865e-001
      vertex -9.414213e+000 -1.172244e-008  5.857865e-001
      vertex -7.391036e+000 -3.061467e+000  0.000000e+000
    endloop
  endfacet
  facet normal -3.815796e-001 -7.590093e-002 -9.212144e-001
    outer loop
      vertex -7.391036e+000 -3.061467e+000  0.000000e+000
      vertex -9.414213e+000 -1.172244e-008  5.857865e-001
      vertex -8.000000e+000 -9.961478e-009  0.000000e+000
    endloop
  endfacet
  facet normal -7.703276e-001 -5.147164e-001 -3.763809e-001
    outer loop
      vertex -7.071068e+000 -7.071068e+000  2.000000e+000
      vertex -9.238795e+000 -3.826834e+000  2.000000e+000
      vertex -6.656854e+000 -6.656854e+000  5.857865e-001
    endloop
  endfacet
  facet normal -7.703276e-001 -5.147165e-001 -3.763806e-001
    outer loop
      vertex -6.656854e+000 -6.656854e+000  5.857865e-001
      vertex -9.238795e+000 -3.826834e+000  2.000000e+000
      vertex -8.697599e+000 -3.602664e+000  5.857865e-001
    endloop
  endfacet
  facet normal -3.234875e-001 -2.161475e-001 -9.212145e-001
    outer loop
      vertex -6.656854e+000 -6.656854e+000  5.857865e-001
      vertex -8.697599e+000 -3.602664e+000  5.857865e-001
      vertex -5.656854e+000 -5.656854e+000  0.000000e+000
    endloop
  endfacet
  facet normal -3.234874e-001 -2.161474e-001 -9.212145e-001
    outer loop
      vertex -5.656854e+000 -5.656854e+000  0.000000e+000
      vertex -8.697599e+000 -3.602664e+000  5.857865e-001
      vertex -7.391036e+000 -3.061467e+000  0.000000e+000
    endloop
  endfacet
  facet normal -5.147164e-001 -7.703276e-001 -3.763806e-001
    outer loop
      vertex -3.826834e+000 -9.238795e+000  2.000000e+000
      vertex -7.071068e+000 -7.071068e+000  2.000000e+000
      vertex -3.602664e+000 -8.697599e+000  5.857865e-001
    endloop
  endfacet
  facet normal -5.147165e-001 -7.703276e-001 -3.763808e-001
    outer loop
      vertex -3.602664e+000 -8.697599e+000  5.857865e-001
      vertex -7.071068e+000 -7.071068e+000  2.000000e+000
      vertex -6.656854e+000 -6.656854e+000  5.857865e-001
    endloop
  endfacet
  facet normal -2.161474e-001 -3.234874e-001 -9.212145e-001
    outer loop
      vertex -3.602664e+000 -8.697599e+000  5.857865e-001
      vertex -6.656854e+000 -6.656854e+000  5.857865e-001
      vertex -3.061467e+000 -7.391036e+000  0.000000e+000
    endloop
  endfacet
  facet normal -2.161474e-001 -3.234875e-001 -9.212145e-001
    outer loop
      vertex -3.061467e+000 -7.391036e+000  0.000000e+000
      vertex -6.656854e+000 -6.656854e+000  5.857865e-001
      vertex -5.656854e+000 -5.656854e+000  0.000000e+000
    endloop
  endfacet
  facet normal -1.807444e-001 -9.086633e-001 -3.763809e-001
    outer loop
      vertex -1.836970e-015 -1.000000e+001  2.000000e+000
      vertex -3.826834e+000 -9.238795e+000  2.000000e+000
      vertex -3.552714e-015 -9.414213e+000  5.857865e-001
    endloop
  endfacet
  facet normal -1.807443e-001 -9.086635e-001 -3.763806e-001
    outer loop
      vertex -3.552714e-015 -9.414213e+000  5.857865e-001
      vertex -3.826834e+000 -9.238795e+000  2.000000e+000
      vertex -3.602664e+000 -8.697599e+000  5.857865e-001
    endloop
  endfacet
  facet normal -7.590085e-002 -3.815796e-001 -9.212145e-001
    outer loop
      vertex -3.552714e-015 -9.414213e+000  5.857865e-001
      vertex -3.602664e+000 -8.697599e+000  5.857865e-001
      vertex -1.469576e-015 -8.000000e+000  0.000000e+000
    endloop
  endfacet
  facet normal -7.590090e-002 -3.815794e-001 -9.212145e-001
    outer loop
      vertex -1.469576e-015 -8.000000e+000  0.000000e+000
      vertex -3.602664e+000 -8.697599e+000  5.857865e-001
      vertex -3.061467e+000 -7.391036e+000  0.000000e+000
    endloop
  endfacet
  facet normal  1.807444e-001 -9.086634e-001 -3.763806e-001
    outer loop
      vertex  3.826834e+000 -9.238795e+000  2.000000e+000
      vertex -1.836970e-015 -1.000000e+001  2.000000e+000
      vertex  3.602664e+000 -8.697599e+000  5.857865e-001
    endloop
  endfacet
  facet normal  1.807442e-001 -9.086633e-001 -3.763809e-001
    outer loop
      vertex  3.602664e+000 -8.697599e+000  5.857865e-001
      vertex -1.836970e-015 -1.000000e+001  2.000000e+000
      vertex -3.552714e-015 -9.414213e+000  5.857865e-001
    endloop
  endfacet
  facet normal  7.590082e-002 -3.815795e-001 -9.212145e-001
    outer loop
      vertex  3.602664e+000 -8.697599e+000  5.857865e-001
      vertex -3.552714e-015 -9.414213e+000  5.857865e-001
      vertex  3.061467e+000 -7.391036e+000  0.000000e+000
    endloop
  endfacet
  facet normal  7.590093e-002 -3.815796e-001 -9.212144e-001
    outer loop
      vertex  3.061467e+000 -7.391036e+000  0.000000e+000
      vertex -3.552714e-015 -9.414213e+000  5.857865e-001
      vertex -1.469576e-015 -8.000000e+000  0.000000e+000
    endloop
  endfacet
  facet normal  5.147164e-001 -7.703276e-001 -3.763809e-001
    outer loop
      vertex  7.071068e+000 -7.071068e+000  2.000000e+000
      vertex  3.826834e+000 -9.238795e+000  2.000000e+000
      vertex  6.656854e+000 -6.656854e+000  5.857865e-001
    endloop
  endfacet
  facet normal  5.147165e-001 -7.703276e-001 -3.763806e-001
    outer loop
      vertex  6.656854e+000 -6.656854e+000  5.857865e-001
      vertex  3.826834e+000 -9.238795e+000  2.000000e+000
      vertex  3.602664e+000 -8.697599e+000  5.857865e-001
    endloop
  endfacet
  facet normal  2.161475e-001 -3.234875e-001 -9.212145e-001
    outer loop
      vertex  6.656854e+000 -6.656854e+000  5.857865e-001
      vertex  3.602664e+000 -8.697599e+000  5.857865e-001
      vertex  5.656854e+000 -5.656854e+000  0.000000e+000
    endloop
  endfacet
  facet normal  2.161474e-001 -3.234874e-001 -9.212145e-001
    outer loop
      vertex  5.656854e+000 -5.656854e+000  0.000000e+000
      vertex  3.602664e+000 -8.697599e+000  5.857865e-001
      vertex  3.061467e+000 -7.391036e+000  0.000000e+000
    endloop
  endfacet
  facet normal  7.703276e-001 -5.147164e-001 -3.763806e-001
    outer loop
      vertex  9.238795e+000 -3.826834e+000  2.000000e+000
      vertex  7.071068e+000 -7.071068e+000  2.000000e+000
      vertex  8.697599e+000 -3.602664e+000  5.857865e-001
    endloop
  endfacet
  facet normal  7.703276e-001 -5.147165e-001 -3.763808e-001
    outer loop
      vertex  8.697599e+000 -3.602664e+000  5.857865e-001
      vertex  7.071068e+000 -7.071068e+000  2.000000e+000
      vertex  6.656854e+000 -6.656854e+000  5.857865e-001
    endloop
  endfacet
  facet normal  3.234874e-001 -2.161474e-001 -9.212145e-001
    outer loop
      vertex  8.697599e+000 -3.602664e+000  5.857865e-001
      vertex  6.656854e+000 -6.656854e+000  5.857865e-001
      vertex  7.391036e+000 -3.061467e+000  0.000000e+000
    endloop
  endfacet
  facet normal  3.234875e-001 -2.161474e-001 -9.212145e-001
    outer loop
      vertex  7.391036e+000 -3.061467e+000  0.000000e+000
      vertex  6.656854e+000 -6.656854e+000  5.857865e-001
      vertex  5.656854e+000 -5.656854e+000  0.000000e+000
    endloop
  endfacet
  facet normal -9.086633e-001  1.807444e-001 -3.763809e-001
    outer loop
      vertex -1.000000e+001  1.224647e-015  2.000000e+000
      vertex -9.238795e+000  3.826834e+000  2.000000e+000
      vertex -9.414213e+000 -1.172244e-008  5.857865e-001
    endloop
  endfacet
  facet normal -9.086635e-001  1.807443e-001 -3.763806e-001
    outer loop
      vertex -9.414213e+000 -1.172244e-008  5.857865e-001
      vertex -9.238795e+000  3.826834e+000  2.000000e+000
      vertex -8.697599e+000  3.602664e+000  5.857865e-001
    endloop
  endfacet
  facet normal -3.815796e-001  7.590085e-002 -9.212145e-001
    outer loop
      vertex -9.414213e+000 -1.172244e-008  5.857865e-001
      vertex -8.697599e+000  3.602664e+000  5.857865e-001
      vertex -8.000000e+000 -9.961478e-009  0.000000e+000
    endloop
  endfacet
  facet normal -3.815794e-001  7.590090e-002 -9.212145e-001
    outer loop
      vertex -8.000000e+000 -9.961478e-009  0.000000e+000
      vertex -8.697599e+000  3.602664e+000  5.857865e-001
      vertex -7.391036e+000  3.061467e+000  0.000000e+000
    endloop
  endfacet
  facet normal  9.086634e-001  1.807444e-001 -3.763806e-001
    outer loop
      vertex  9.238795e+000  3.826834e+000  2.000000e+000
      vertex  1.000000e+001 -2.449294e-015  2.000000e+000
      vertex  8.697599e+000  3.602664e+000  5.857865e-001
    endloop
  endfacet
  facet normal  9.086633e-001  1.807442e-001 -3.763809e-001
    outer loop
      vertex  8.697599e+000  3.602664e+000  5.857865e-001
      vertex  1.000000e+001 -2.449294e-015  2.000000e+000
      vertex  9.414213e+000  1.776357e-015  5.857865e-001
    endloop
  endfacet
  facet normal  3.815795e-001  7.590082e-002 -9.212145e-001
    outer loop
      vertex  8.697599e+000  3.602664e+000  5.857865e-001
      vertex  9.414213e+000  1.776357e-015  5.857865e-001
      vertex  7.391036e+000  3.061467e+000  0.000000e+000
    endloop
  endfacet
  facet normal  3.815796e-001  7.590093e-002 -9.212144e-001
    outer loop
      vertex  7.391036e+000  3.061467e+000  0.000000e+000
      vertex  9.414213e+000  1.776357e-015  5.857865e-001
      vertex  8.000000e+000 -1.204580e-015  0.000000e+000
    endloop
  endfacet
  facet normal  7.703276e-001  5.147164e-001 -3.763809e-001
    outer loop
      vertex  7.071068e+000  7.071068e+000  2.000000e+000
      vertex  9.238795e+000  3.826834e+000  2.000000e+000
      vertex  6.656854e+000  6.656854e+000  5.857865e-001
    endloop
  endfacet
  facet normal  7.703276e-001  5.147165e-001 -3.763806e-001
    outer loop
      vertex  6.656854e+000  6.656854e+000  5.857865e-001
      vertex  9.238795e+000  3.826834e+000  2.000000e+000
      vertex  8.697599e+000  3.602664e+000  5.857865e-001
    endloop
  endfacet
  facet normal  3.234875e-001  2.161475e-001 -9.212145e-001
    outer loop
      vertex  6.656854e+000  6.656854e+000  5.857865e-001
      vertex  8.697599e+000  3.602664e+000  5.857865e-001
      vertex  5.656854e+000  5.656854e+000  0.000000e+000
    endloop
  endfacet
  facet normal  3.234874e-001  2.161474e-001 -9.212145e-001
    outer loop
      vertex  5.656854e+000  5.656854e+000  0.000000e+000
      vertex  8.697599e+000  3.602664e+000  5.857865e-001
      vertex  7.391036e+000  3.061467e+000  0.000000e+000
    endloop
  endfacet
  facet normal  5.147164e-001  7.703276e-001 -3.763806e-001
    outer loop
      vertex  3.826834e+000  9.238795e+000  2.000000e+000
      vertex  7.071068e+000  7.071068e+000  2.000000e+000
      vertex  3.602664e+000  8.697599e+000  5.857865e-001
    endloop
  endfacet
  facet normal  5.147165e-001  7.703276e-001 -3.763808e-001
    outer loop
      vertex  3.602664e+000  8.697599e+000  5.857865e-001
      vertex  7.071068e+000  7.071068e+000  2.000000e+000
      vertex  6.656854e+000  6.656854e+000  5.857865e-001
    endloop
  endfacet
  facet normal  2.161474e-001  3.234874e-001 -9.212145e-001
    outer loop
      vertex  3.602664e+000  8.697599e+000  5.857865e-001
      vertex  6.656854e+000  6.656854e+000  5.857865e-001
      vertex  3.061467e+000  7.391036e+000  0.000000e+000
    endloop
  endfacet
  facet normal  2.161474e-001  3.234875e-001 -9.212145e-001
    outer loop
      vertex  3.061467e+000  7.391036e+000  0.000000e+000
      vertex  6.656854e+000  6.656854e+000  5.857865e-001
      vertex  5.656854e+000  5.656854e+000  0.000000e+000
    endloop
  endfacet
  facet normal  1.807444e-001  9.086633e-001 -3.763809e-001
    outer loop
      vertex  6.123234e-016  1.000000e+001  2.000000e+000
      vertex  3.826834e+000  9.238795e+000  2.000000e+000
      vertex -5.861219e-009  9.414213e+000  5.857865e-001
    endloop
  endfacet
  facet normal  1.807443e-001  9.086635e-001 -3.763806e-001
    outer loop
      vertex -5.861219e-009  9.414213e+000  5.857865e-001
      vertex  3.826834e+000  9.238795e+000  2.000000e+000
      vertex  3.602664e+000  8.697599e+000  5.857865e-001
    endloop
  endfacet
  facet normal  7.590085e-002  3.815796e-001 -9.212145e-001
    outer loop
      vertex -5.861219e-009  9.414213e+000  5.857865e-001
      vertex  3.602664e+000  8.697599e+000  5.857865e-001
      vertex -4.980741e-009  8.000000e+000  0.000000e+000
    endloop
  endfacet
  facet normal  7.590090e-002  3.815794e-001 -9.212145e-001
    outer loop
      vertex -4.980741e-009  8.000000e+000  0.000000e+000
      vertex  3.602664e+000  8.697599e+000  5.857865e-001
      vertex  3.061467e+000  7.391036e+000  0.000000e+000
    endloop
  endfacet
  facet normal -1.807444e-001  9.086634e-001 -3.763806e-001
    outer loop
      vertex -3.826834e+000  9.238795e+000  2.000000e+000
      vertex  6.123234e-016  1.000000e+001  2.000000e+000
      vertex -3.602664e+000  8.697599e+000  5.857865e-001
    endloop
  endfacet
  facet normal -1.807442e-001  9.086633e-001 -3.763809e-001
    outer loop
      vertex -3.602664e+000  8.697599e+000  5.857865e-001
      vertex  6.123234e-016  1.000000e+001  2.000000e+000
      vertex -5.861219e-009  9.414213e+000  5.857865e-001
    endloop
  endfacet
  facet normal -7.590082e-002  3.815795e-001 -9.212145e-001
    outer loop
      vertex -3.602664e+000  8.697599e+000  5.857865e-001
      vertex -5.861219e-009  9.414213e+000  5.857865e-001
      vertex -3.061467e+000  7.391036e+000  0.000000e+000
    endloop
  endfacet
  facet normal -7.590093e-002  3.815796e-001 -9.212144e-001
    outer loop
      vertex -3.061467e+000  7.391036e+000  0.000000e+000
      vertex -5.861219e-009  9.414213e+000  5.857865e-001
      vertex -4.980741e-009  8.000000e+000  0.000000e+000
    endloop
  endfacet
  facet normal -5.147164e-001  7.703276e-001 -3.763809e-001
    outer loop
      vertex -7.071068e+000  7.071068e+000  2.000000e+000
      vertex -3.826834e+000  9.238795e+000  2.000000e+000
      vertex -6.656854e+000  6.656854e+000  5.857865e-001
    endloop
  endfacet
  facet normal -5.147165e-001  7.703276e-001 -3.763806e-001
    outer loop
      vertex -6.656854e+000  6.656854e+000  5.857865e-001
      vertex -3.826834e+000  9.238795e+000  2.000000e+000
      vertex -3.602664e+000  8.697599e+000  5.857865e-001
    endloop
  endfacet
  facet normal -2.161475e-001  3.234875e-001 -9.212145e-001
    outer loop
      vertex -6.656854e+000  6.656854e+000  5.857865e-001
      vertex -3.602664e+000  8.697599e+000  5.857865e-001
      vertex -5.656854e+000  5.656854e+000  0.000000e+000
    endloop
  endfacet
  facet normal -2.161474e-001  3.234874e-001 -9.212145e-001
    outer loop
      vertex -5.656854e+000  5.656854e+000  0.000000e+000
      vertex -3.602664e+000  8.697599e+000  5.857865e-001
      vertex -3.061467e+000  7.391036e+000  0.000000e+000
    endloop
  endfacet
  facet normal -7.703276e-001  5.147164e-001 -3.763806e-001
    outer loop
      vertex -9.238795e+000  3.826834e+000  2.000000e+000
      vertex -7.071068e+000  7.071068e+000  2.000000e+000
      vertex -8.697599e+000  3.602664e+000  5.857865e-001
    endloop
  endfacet
  facet normal -7.703276e-001  5.147165e-001 -3.763808e-001
    outer loop
      vertex -8.697599e+000  3.602664e+000  5.857865e-001
      vertex -7.071068e+000  7.071068e+000  2.000000e+000
      vertex -6.656854e+000  6.656854e+000  5.857865e-001
    endloop
  endfacet
  facet normal -3.234874e-001  2.161474e-001 -9.212145e-001
    outer loop
      vertex -8.697599e+000  3.602664e+000  5.857865e-001
      vertex -6.656854e+000  6.656854e+000  5.857865e-001
      vertex -7.391036e+000  3.061467e+000  0.000000e+000
    endloop
  endfacet
  facet normal -3.234875e-001  2.161474e-001 -9.212145e-001
    outer loop
      vertex -7.391036e+000  3.061467e+000  0.000000e+000
      vertex -6.656854e+000  6.656854e+000  5.857865e-001
      vertex -5.656854e+000  5.656854e+000  0.000000e+000
    endloop
  endfacet
  facet normal  0.000000e+000  0.000000e+000  1.000000e+000
    outer loop
      vertex -3.061468e+000  7.391036e+000  7.000000e+001
      vertex  3.061467e+000  7.391037e+000  7.000000e+001
      vertex -6.564130e-008  8.000000e+000  7.000000e+001
    endloop
  endfacet
  facet normal  -0.000000e+000  0.000000e+000  1.000000e+000
    outer loop
      vertex  3.061467e+000  7.391037e+000  7.000000e+001
      vertex -3.061468e+000  7.391036e+000  7.000000e+001
      vertex  5.656854e+000  5.656854e+000  7.000000e+001
    endloop
  endfacet
  facet normal  0.000000e+000  0.000000e+000  1.000000e+000
    outer loop
      vertex  5.656854e+000  5.656854e+000  7.000000e+001
      vertex -3.061468e+000  7.391036e+000  7.000000e+001
      vertex -5.656854e+000  5.656854e+000  7.000000e+001
    endloop
  endfacet
  facet normal  -0.000000e+000  0.000000e+000  1.000000e+000
    outer loop
      vertex  5.656854e+000  5.656854e+000  7.000000e+001
      vertex -5.656854e+000  5.656854e+000  7.000000e+001
      vertex  7.391036e+000  3.061467e+000  7.000000e+001
    endloop
  endfacet
  facet normal  0.000000e+000  0.000000e+000  1.000000e+000
    outer loop
      vertex  7.391036e+000  3.061467e+000  7.000000e+001
      vertex -5.656854e+000  5.656854e+000  7.000000e+001
      vertex -7.391037e+000  3.061467e+000  7.000000e+001
    endloop
  endfacet
  facet normal  -0.000000e+000  0.000000e+000  9.999999e-001
    outer loop
      vertex  7.391036e+000  3.061467e+000  7.000000e+001
      vertex -7.391037e+000  3.061467e+000  7.000000e+001
      vertex  8.000000e+000 -1.687701e-015  7.000000e+001
    endloop
  endfacet
  facet normal  0.000000e+000  0.000000e+000  1.000000e+000
    outer loop
      vertex  8.000000e+000 -1.687701e-015  7.000000e+001
      vertex -7.391037e+000  3.061467e+000  7.000000e+001
      vertex -8.000000e+000 -1.312826e-007  7.000000e+001
    endloop
  endfacet
  facet normal  -0.000000e+000  0.000000e+000  1.000000e+000
    outer loop
      vertex  8.000000e+000 -1.687701e-015  7.000000e+001
      vertex -8.000000e+000 -1.312826e-007  7.000000e+001
      vertex  7.391036e+000 -3.061467e+000  7.000000e+001
    endloop
  endfacet
  facet normal  0.000000e+000  0.000000e+000  9.999999e-001
    outer loop
      vertex  7.391036e+000 -3.061467e+000  7.000000e+001
      vertex -8.000000e+000 -1.312826e-007  7.000000e+001
      vertex -7.391036e+000 -3.061467e+000  7.000000e+001
    endloop
  endfacet
  facet normal  -0.000000e+000  0.000000e+000  1.000000e+000
    outer loop
      vertex  7.391036e+000 -3.061467e+000  7.000000e+001
      vertex -7.391036e+000 -3.061467e+000  7.000000e+001
      vertex  5.656854e+000 -5.656854e+000  7.000000e+001
    endloop
  endfacet
  facet normal  0.000000e+000  0.000000e+000  1.000000e+000
    outer loop
      vertex  5.656854e+000 -5.656854e+000  7.000000e+001
      vertex -7.391036e+000 -3.061467e+000  7.000000e+001
      vertex -5.656854e+000 -5.656854e+000  7.000000e+001
    endloop
  endfacet
  facet normal  -0.000000e+000  0.000000e+000  1.000000e+000
    outer loop
      vertex  5.656854e+000 -5.656854e+000  7.000000e+001
      vertex -5.656854e+000 -5.656854e+000  7.000000e+001
      vertex  3.061467e+000 -7.391036e+000  7.000000e+001
    endloop
  endfacet
  facet normal  0.000000e+000  0.000000e+000  1.000000e+000
    outer loop
      vertex  3.061467e+000 -7.391036e+000  7.000000e+001
      vertex -5.656854e+000 -5.656854e+000  7.000000e+001
      vertex -3.061467e+000 -7.391036e+000  7.000000e+001
    endloop
  endfacet
  facet normal  -0.000000e+000  0.000000e+000  1.000000e+000
    outer loop
      vertex  3.061467e+000 -7.391036e+000  7.000000e+001
      vertex -3.061467e+000 -7.391036e+000  7.000000e+001
      vertex -1.469576e-015 -8.000000e+000  7.000000e+001
    endloop
  endfacet
  facet normal  3.815787e-001 -7.590076e-002  9.212148e-001
    outer loop
      vertex  8.000000e+000 -1.687701e-015  7.000000e+001
      vertex  7.391036e+000 -3.061467e+000  7.000000e+001
      vertex  9.414213e+000  0.000000e+000  6.941422e+001
    endloop
  endfacet
  facet normal  3.815786e-001 -7.590064e-002  9.212149e-001
    outer loop
      vertex  9.414213e+000  0.000000e+000  6.941422e+001
      vertex  7.391036e+000 -3.061467e+000  7.000000e+001
      vertex  8.697599e+000 -3.602664e+000  6.941422e+001
    endloop
  endfacet
  facet normal  9.086634e-001 -1.807442e-001  3.763805e-001
    outer loop
      vertex  9.414213e+000  0.000000e+000  6.941422e+001
      vertex  8.697599e+000 -3.602664e+000  6.941422e+001
      vertex  1.000000e+001 -2.449294e-015  6.800000e+001
    endloop
  endfacet
  facet normal  9.086635e-001 -1.807444e-001  3.763802e-001
    outer loop
      vertex  1.000000e+001 -2.449294e-015  6.800000e+001
      vertex  8.697599e+000 -3.602664e+000  6.941422e+001
      vertex  9.238795e+000 -3.826834e+000  6.800000e+001
    endloop
  endfacet
  facet normal -3.815786e-001 -7.590073e-002  9.212149e-001
    outer loop
      vertex -7.391036e+000 -3.061467e+000  7.000000e+001
      vertex -8.000000e+000 -1.312826e-007  7.000000e+001
      vertex -8.697599e+000 -3.602664e+000  6.941422e+001
    endloop
  endfacet
  facet normal -3.815787e-001 -7.590067e-002  9.212148e-001
    outer loop
      vertex -8.697599e+000 -3.602664e+000  6.941422e+001
      vertex -8.000000e+000 -1.312826e-007  7.000000e+001
      vertex -9.414213e+000 -2.664535e-015  6.941422e+001
    endloop
  endfacet
  facet normal -9.086635e-001 -1.807443e-001  3.763802e-001
    outer loop
      vertex -8.697599e+000 -3.602664e+000  6.941422e+001
      vertex -9.414213e+000 -2.664535e-015  6.941422e+001
      vertex -9.238795e+000 -3.826834e+000  6.800000e+001
    endloop
  endfacet
  facet normal -9.086634e-001 -1.807444e-001  3.763806e-001
    outer loop
      vertex -9.238795e+000 -3.826834e+000  6.800000e+001
      vertex -9.414213e+000 -2.664535e-015  6.941422e+001
      vertex -1.000000e+001  1.224647e-015  6.800000e+001
    endloop
  endfacet
  facet normal -3.234868e-001 -2.161469e-001  9.212148e-001
    outer loop
      vertex -5.656854e+000 -5.656854e+000  7.000000e+001
      vertex -7.391036e+000 -3.061467e+000  7.000000e+001
      vertex -6.656854e+000 -6.656854e+000  6.941422e+001
    endloop
  endfacet
  facet normal -3.234867e-001 -2.161469e-001  9.212149e-001
    outer loop
      vertex -6.656854e+000 -6.656854e+000  6.941422e+001
      vertex -7.391036e+000 -3.061467e+000  7.000000e+001
      vertex -8.697599e+000 -3.602664e+000  6.941422e+001
    endloop
  endfacet
  facet normal -7.703276e-001 -5.147165e-001  3.763804e-001
    outer loop
      vertex -6.656854e+000 -6.656854e+000  6.941422e+001
      vertex -8.697599e+000 -3.602664e+000  6.941422e+001
      vertex -7.071068e+000 -7.071068e+000  6.800000e+001
    endloop
  endfacet
  facet normal -7.703277e-001 -5.147166e-001  3.763802e-001
    outer loop
      vertex -7.071068e+000 -7.071068e+000  6.800000e+001
      vertex -8.697599e+000 -3.602664e+000  6.941422e+001
      vertex -9.238795e+000 -3.826834e+000  6.800000e+001
    endloop
  endfacet
  facet normal -2.161469e-001 -3.234867e-001  9.212149e-001
    outer loop
      vertex -3.061467e+000 -7.391036e+000  7.000000e+001
      vertex -5.656854e+000 -5.656854e+000  7.000000e+001
      vertex -3.602664e+000 -8.697599e+000  6.941422e+001
    endloop
  endfacet
  facet normal -2.161470e-001 -3.234868e-001  9.212149e-001
    outer loop
      vertex -3.602664e+000 -8.697599e+000  6.941422e+001
      vertex -5.656854e+000 -5.656854e+000  7.000000e+001
      vertex -6.656854e+000 -6.656854e+000  6.941422e+001
    endloop
  endfacet
  facet normal -5.147166e-001 -7.703276e-001  3.763802e-001
    outer loop
      vertex -3.602664e+000 -8.697599e+000  6.941422e+001
      vertex -6.656854e+000 -6.656854e+000  6.941422e+001
      vertex -3.826834e+000 -9.238795e+000  6.800000e+001
    endloop
  endfacet
  facet normal -5.147164e-001 -7.703276e-001  3.763805e-001
    outer loop
      vertex -3.826834e+000 -9.238795e+000  6.800000e+001
      vertex -6.656854e+000 -6.656854e+000  6.941422e+001
      vertex -7.071068e+000 -7.071068e+000  6.800000e+001
    endloop
  endfacet
  facet normal -7.590076e-002 -3.815787e-001  9.212148e-001
    outer loop
      vertex -1.469576e-015 -8.000000e+000  7.000000e+001
      vertex -3.061467e+000 -7.391036e+000  7.000000e+001
      vertex -7.549517e-015 -9.414213e+000  6.941422e+001
    endloop
  endfacet
  facet normal -7.590064e-002 -3.815786e-001  9.212149e-001
    outer loop
      vertex -7.549517e-015 -9.414213e+000  6.941422e+001
      vertex -3.061467e+000 -7.391036e+000  7.000000e+001
      vertex -3.602664e+000 -8.697599e+000  6.941422e+001
    endloop
  endfacet
  facet normal -1.807442e-001 -9.086634e-001  3.763805e-001
    outer loop
      vertex -7.549517e-015 -9.414213e+000  6.941422e+001
      vertex -3.602664e+000 -8.697599e+000  6.941422e+001
      vertex -1.836970e-015 -1.000000e+001  6.800000e+001
    endloop
  endfacet
  facet normal -1.807444e-001 -9.086635e-001  3.763802e-001
    outer loop
      vertex -1.836970e-015 -1.000000e+001  6.800000e+001
      vertex -3.602664e+000 -8.697599e+000  6.941422e+001
      vertex -3.826834e+000 -9.238795e+000  6.800000e+001
    endloop
  endfacet
  facet normal  7.590073e-002 -3.815786e-001  9.212149e-001
    outer loop
      vertex  3.061467e+000 -7.391036e+000  7.000000e+001
      vertex -1.469576e-015 -8.000000e+000  7.000000e+001
      vertex  3.602664e+000 -8.697599e+000  6.941422e+001
    endloop
  endfacet
  facet normal  7.590067e-002 -3.815787e-001  9.212148e-001
    outer loop
      vertex  3.602664e+000 -8.697599e+000  6.941422e+001
      vertex -1.469576e-015 -8.000000e+000  7.000000e+001
      vertex -7.549517e-015 -9.414213e+000  6.941422e+001
    endloop
  endfacet
  facet normal  1.807443e-001 -9.086635e-001  3.763802e-001
    outer loop
      vertex  3.602664e+000 -8.697599e+000  6.941422e+001
      vertex -7.549517e-015 -9.414213e+000  6.941422e+001
      vertex  3.826834e+000 -9.238795e+000  6.800000e+001
    endloop
  endfacet
  facet normal  1.807444e-001 -9.086634e-001  3.763806e-001
    outer loop
      vertex  3.826834e+000 -9.238795e+000  6.800000e+001
      vertex -7.549517e-015 -9.414213e+000  6.941422e+001
      vertex -1.836970e-015 -1.000000e+001  6.800000e+001
    endloop
  endfacet
  facet normal  2.161469e-001 -3.234868e-001  9.212148e-001
    outer loop
      vertex  5.656854e+000 -5.656854e+000  7.000000e+001
      vertex  3.061467e+000 -7.391036e+000  7.000000e+001
      vertex  6.656854e+000 -6.656854e+000  6.941422e+001
    endloop
  endfacet
  facet normal  2.161469e-001 -3.234867e-001  9.212149e-001
    outer loop
      vertex  6.656854e+000 -6.656854e+000  6.941422e+001
      vertex  3.061467e+000 -7.391036e+000  7.000000e+001
      vertex  3.602664e+000 -8.697599e+000  6.941422e+001
    endloop
  endfacet
  facet normal  5.147165e-001 -7.703276e-001  3.763804e-001
    outer loop
      vertex  6.656854e+000 -6.656854e+000  6.941422e+001
      vertex  3.602664e+000 -8.697599e+000  6.941422e+001
      vertex  7.071068e+000 -7.071068e+000  6.800000e+001
    endloop
  endfacet
  facet normal  5.147166e-001 -7.703277e-001  3.763802e-001
    outer loop
      vertex  7.071068e+000 -7.071068e+000  6.800000e+001
      vertex  3.602664e+000 -8.697599e+000  6.941422e+001
      vertex  3.826834e+000 -9.238795e+000  6.800000e+001
    endloop
  endfacet
  facet normal  3.234867e-001 -2.161469e-001  9.212149e-001
    outer loop
      vertex  7.391036e+000 -3.061467e+000  7.000000e+001
      vertex  5.656854e+000 -5.656854e+000  7.000000e+001
      vertex  8.697599e+000 -3.602664e+000  6.941422e+001
    endloop
  endfacet
  facet normal  3.234868e-001 -2.161470e-001  9.212149e-001
    outer loop
      vertex  8.697599e+000 -3.602664e+000  6.941422e+001
      vertex  5.656854e+000 -5.656854e+000  7.000000e+001
      vertex  6.656854e+000 -6.656854e+000  6.941422e+001
    endloop
  endfacet
  facet normal  7.703276e-001 -5.147166e-001  3.763802e-001
    outer loop
      vertex  8.697599e+000 -3.602664e+000  6.941422e+001
      vertex  6.656854e+000 -6.656854e+000  6.941422e+001
      vertex  9.238795e+000 -3.826834e+000  6.800000e+001
    endloop
  endfacet
  facet normal  7.703276e-001 -5.147164e-001  3.763805e-001
    outer loop
      vertex  9.238795e+000 -3.826834e+000  6.800000e+001
      vertex  6.656854e+000 -6.656854e+000  6.941422e+001
      vertex  7.071068e+000 -7.071068e+000  6.800000e+001
    endloop
  endfacet
  facet normal -3.815787e-001  7.590069e-002  9.212148e-001
    outer loop
      vertex -8.000000e+000 -1.312826e-007  7.000000e+001
      vertex -7.391037e+000  3.061467e+000  7.000000e+001
      vertex -9.414213e+000 -2.664535e-015  6.941422e+001
    endloop
  endfacet
  facet normal -3.815787e-001  7.590067e-002  9.212148e-001
    outer loop
      vertex -9.414213e+000 -2.664535e-015  6.941422e+001
      vertex -7.391037e+000  3.061467e+000  7.000000e+001
      vertex -8.697599e+000  3.602664e+000  6.941422e+001
    endloop
  endfacet
  facet normal -9.086634e-001  1.807442e-001  3.763805e-001
    outer loop
      vertex -9.414213e+000 -2.664535e-015  6.941422e+001
      vertex -8.697599e+000  3.602664e+000  6.941422e+001
      vertex -1.000000e+001  1.224647e-015  6.800000e+001
    endloop
  endfacet
  facet normal -9.086635e-001  1.807444e-001  3.763802e-001
    outer loop
      vertex -1.000000e+001  1.224647e-015  6.800000e+001
      vertex -8.697599e+000  3.602664e+000  6.941422e+001
      vertex -9.238795e+000  3.826834e+000  6.800000e+001
    endloop
  endfacet
  facet normal  3.815786e-001  7.590073e-002  9.212149e-001
    outer loop
      vertex  7.391036e+000  3.061467e+000  7.000000e+001
      vertex  8.000000e+000 -1.687701e-015  7.000000e+001
      vertex  8.697599e+000  3.602664e+000  6.941422e+001
    endloop
  endfacet
  facet normal  3.815787e-001  7.590067e-002  9.212148e-001
    outer loop
      vertex  8.697599e+000  3.602664e+000  6.941422e+001
      vertex  8.000000e+000 -1.687701e-015  7.000000e+001
      vertex  9.414213e+000  0.000000e+000  6.941422e+001
    endloop
  endfacet
  facet normal  9.086635e-001  1.807443e-001  3.763802e-001
    outer loop
      vertex  8.697599e+000  3.602664e+000  6.941422e+001
      vertex  9.414213e+000  0.000000e+000  6.941422e+001
      vertex  9.238795e+000  3.826834e+000  6.800000e+001
    endloop
  endfacet
  facet normal  9.086634e-001  1.807444e-001  3.763806e-001
    outer loop
      vertex  9.238795e+000  3.826834e+000  6.800000e+001
      vertex  9.414213e+000  0.000000e+000  6.941422e+001
      vertex  1.000000e+001 -2.449294e-015  6.800000e+001
    endloop
  endfacet
  facet normal  3.234868e-001  2.161469e-001  9.212148e-001
    outer loop
      vertex  5.656854e+000  5.656854e+000  7.000000e+001
      vertex  7.391036e+000  3.061467e+000  7.000000e+001
      vertex  6.656854e+000  6.656854e+000  6.941422e+001
    endloop
  endfacet
  facet normal  3.234867e-001  2.161469e-001  9.212149e-001
    outer loop
      vertex  6.656854e+000  6.656854e+000  6.941422e+001
      vertex  7.391036e+000  3.061467e+000  7.000000e+001
      vertex  8.697599e+000  3.602664e+000  6.941422e+001
    endloop
  endfacet
  facet normal  7.703276e-001  5.147165e-001  3.763804e-001
    outer loop
      vertex  6.656854e+000  6.656854e+000  6.941422e+001
      vertex  8.697599e+000  3.602664e+000  6.941422e+001
      vertex  7.071068e+000  7.071068e+000  6.800000e+001
    endloop
  endfacet
  facet normal  7.703277e-001  5.147166e-001  3.763802e-001
    outer loop
      vertex  7.071068e+000  7.071068e+000  6.800000e+001
      vertex  8.697599e+000  3.602664e+000  6.941422e+001
      vertex  9.238795e+000  3.826834e+000  6.800000e+001
    endloop
  endfacet
  facet normal  2.161470e-001  3.234868e-001  9.212148e-001
    outer loop
      vertex  3.061467e+000  7.391037e+000  7.000000e+001
      vertex  5.656854e+000  5.656854e+000  7.000000e+001
      vertex  3.602664e+000  8.697599e+000  6.941422e+001
    endloop
  endfacet
  facet normal  2.161470e-001  3.234868e-001  9.212149e-001
    outer loop
      vertex  3.602664e+000  8.697599e+000  6.941422e+001
      vertex  5.656854e+000  5.656854e+000  7.000000e+001
      vertex  6.656854e+000  6.656854e+000  6.941422e+001
    endloop
  endfacet
  facet normal  5.147166e-001  7.703276e-001  3.763802e-001
    outer loop
      vertex  3.602664e+000  8.697599e+000  6.941422e+001
      vertex  6.656854e+000  6.656854e+000  6.941422e+001
      vertex  3.826834e+000  9.238795e+000  6.800000e+001
    endloop
  endfacet
  facet normal  5.147164e-001  7.703276e-001  3.763805e-001
    outer loop
      vertex  3.826834e+000  9.238795e+000  6.800000e+001
      vertex  6.656854e+000  6.656854e+000  6.941422e+001
      vertex  7.071068e+000  7.071068e+000  6.800000e+001
    endloop
  endfacet
  facet normal  7.590070e-002  3.815787e-001  9.212148e-001
    outer loop
      vertex -6.564130e-008  8.000000e+000  7.000000e+001
      vertex  3.061467e+000  7.391037e+000  7.000000e+001
      vertex -1.776357e-015  9.414213e+000  6.941422e+001
    endloop
  endfacet
  facet normal  7.590067e-002  3.815787e-001  9.212148e-001
    outer loop
      vertex -1.776357e-015  9.414213e+000  6.941422e+001
      vertex  3.061467e+000  7.391037e+000  7.000000e+001
      vertex  3.602664e+000  8.697599e+000  6.941422e+001
    endloop
  endfacet
  facet normal  1.807442e-001  9.086634e-001  3.763805e-001
    outer loop
      vertex -1.776357e-015  9.414213e+000  6.941422e+001
      vertex  3.602664e+000  8.697599e+000  6.941422e+001
      vertex  6.123234e-016  1.000000e+001  6.800000e+001
    endloop
  endfacet
  facet normal  1.807444e-001  9.086635e-001  3.763802e-001
    outer loop
      vertex  6.123234e-016  1.000000e+001  6.800000e+001
      vertex  3.602664e+000  8.697599e+000  6.941422e+001
      vertex  3.826834e+000  9.238795e+000  6.800000e+001
    endloop
  endfacet
  facet normal -7.590073e-002  3.815786e-001  9.212149e-001
    outer loop
      vertex -3.061468e+000  7.391036e+000  7.000000e+001
      vertex -6.564130e-008  8.000000e+000  7.000000e+001
      vertex -3.602664e+000  8.697599e+000  6.941422e+001
    endloop
  endfacet
  facet normal -7.590067e-002  3.815787e-001  9.212148e-001
    outer loop
      vertex -3.602664e+000  8.697599e+000  6.941422e+001
      vertex -6.564130e-008  8.000000e+000  7.000000e+001
      vertex -1.776357e-015  9.414213e+000  6.941422e+001
    endloop
  endfacet
  facet normal -1.807443e-001  9.086635e-001  3.763802e-001
    outer loop
      vertex -3.602664e+000  8.697599e+000  6.941422e+001
      vertex -1.776357e-015  9.414213e+000  6.941422e+001
      vertex -3.826834e+000  9.238795e+000  6.800000e+001
    endloop
  endfacet
  facet normal -1.807444e-001  9.086634e-001  3.763806e-001
    outer loop
      vertex -3.826834e+000  9.238795e+000  6.800000e+001
      vertex -1.776357e-015  9.414213e+000  6.941422e+001
      vertex  6.123234e-016  1.000000e+001  6.800000e+001
    endloop
  endfacet
  facet normal -2.161470e-001  3.234868e-001  9.212148e-001
    outer loop
      vertex -5.656854e+000  5.656854e+000  7.000000e+001
      vertex -3.061468e+000  7.391036e+000  7.000000e+001
      vertex -6.656854e+000  6.656854e+000  6.941422e+001
    endloop
  endfacet
  facet normal -2.161470e-001  3.234867e-001  9.212149e-001
    outer loop
      vertex -6.656854e+000  6.656854e+000  6.941422e+001
      vertex -3.061468e+000  7.391036e+000  7.000000e+001
      vertex -3.602664e+000  8.697599e+000  6.941422e+001
    endloop
  endfacet
  facet normal -5.147165e-001  7.703276e-001  3.763804e-001
    outer loop
      vertex -6.656854e+000  6.656854e+000  6.941422e+001
      vertex -3.602664e+000  8.697599e+000  6.941422e+001
      vertex -7.071068e+000  7.071068e+000  6.800000e+001
    endloop
  endfacet
  facet normal -5.147166e-001  7.703277e-001  3.763802e-001
    outer loop
      vertex -7.071068e+000  7.071068e+000  6.800000e+001
      vertex -3.602664e+000  8.697599e+000  6.941422e+001
      vertex -3.826834e+000  9.238795e+000  6.800000e+001
    endloop
  endfacet
  facet normal -3.234868e-001  2.161470e-001  9.212148e-001
    outer loop
      vertex -7.391037e+000  3.061467e+000  7.000000e+001
      vertex -5.656854e+000  5.656854e+000  7.000000e+001
      vertex -8.697599e+000  3.602664e+000  6.941422e+001
    endloop
  endfacet
  facet normal -3.234868e-001  2.161470e-001  9.212149e-001
    outer loop
      vertex -8.697599e+000  3.602664e+000  6.941422e+001
      vertex -5.656854e+000  5.656854e+000  7.000000e+001
      vertex -6.656854e+000  6.656854e+000  6.941422e+001
    endloop
  endfacet
  facet normal -7.703276e-001  5.147166e-001  3.763802e-001
    outer loop
      vertex -8.697599e+000  3.602664e+000  6.941422e+001
      vertex -6.656854e+000  6.656854e+000  6.941422e+001
      vertex -9.238795e+000  3.826834e+000  6.800000e+001
    endloop
  endfacet
  facet normal -7.703276e-001  5.147164e-001  3.763805e-001
    outer loop
      vertex -9.238795e+000  3.826834e+000  6.800000e+001
      vertex -6.656854e+000  6.656854e+000  6.941422e+001
      vertex -7.071068e+000  7.071068e+000  6.800000e+001
    endloop
  endfacet
endsolid CATIA STL
